<?xml version="1.0" encoding="utf-8"?>
<!-- Generator: Adobe Illustrator 27.0.0, SVG Export Plug-In . SVG Version: 6.00 Build 0)  -->
<svg version="1.1" id="Layer_1" xmlns="http://www.w3.org/2000/svg" xmlns:xlink="http://www.w3.org/1999/xlink" x="0px" y="0px"
	 viewBox="0 0 215 66" style="enable-background:new 0 0 215 66;" xml:space="preserve">
<style type="text/css">
	.st0{fill:#3BB77E;}
	.st1{fill:#FFFFFF;}
	.st2{fill:#999999;}
	.st3{font-family:'BrittanySignatureRegular';}
	.st4{font-size:9.7903px;}
</style>
<g>
	<path class="st0" d="M45.7,34.9h-2.1L32.5,25v9.8h-1.6v-20h1.6V24l10.3-9.1h2V15l-10.6,9.4l11.6,10.3V34.9z"/>
	<path class="st0" d="M48.3,34.9v-20h1.6v20H48.3z"/>
	<path class="st0" d="M68.5,16.2h-8.1v-1.3h9.7v12.5c0,2.4-0.8,4.3-2.3,5.7c-1.6,1.4-3.6,2.1-6,2.1c-2.4,0-4.4-0.7-6-2.2
		c-1.6-1.5-2.4-3.4-2.4-5.7h1.5c0,1.9,0.6,3.4,1.9,4.6c1.3,1.2,2.9,1.8,4.9,1.8c2,0,3.6-0.6,4.9-1.7c1.2-1.1,1.9-2.7,1.9-4.7V16.2z"
		/>
	<path class="st0" d="M91.4,34.9L89.1,30H76.4l-2.3,4.9h-1.8l9.5-20h1.8l9.5,20H91.4z M88.4,28.5l-5.7-12.2l-5.7,12.2H88.4z"/>
	<path class="st0" d="M97.2,14.9l14.2,16.5V14.9h1.6v20h-0.6L98.1,18.4v16.5h-1.6v-20H97.2z"/>
	<path class="st0" d="M118.6,34.9v-20h1.6v20H118.6z"/>
</g>
<g>
	<path class="st1" d="M150.8,32.3c-2.1,2-4.8,3-7.9,3c-1.9,0-3.5-0.3-4.9-0.9c-1.4-0.6-2.6-1.3-3.5-2.3c-0.9-1-1.6-2.1-2-3.3
		c-0.5-1.2-0.7-2.5-0.7-3.8c0-1.4,0.2-2.6,0.7-3.9c0.5-1.2,1.1-2.3,2-3.3c0.9-1,2.1-1.8,3.5-2.4c1.5-0.6,3.1-0.9,4.9-0.9
		c3,0,5.6,1,7.7,3l-2.3,2.1c-1.5-1.4-3.3-2.1-5.5-2.1c-2.5,0-4.4,0.7-5.8,2.2c-1.3,1.5-2,3.2-2,5.2c0,2,0.7,3.7,2,5.2
		c1.3,1.4,3.2,2.1,5.8,2.1c1,0,2-0.2,3-0.6c1-0.4,1.9-0.9,2.6-1.6L150.8,32.3z"/>
	<path class="st1" d="M168.5,30.7h-11.4l-2,4.2h-3.6l9.5-20h3.7l9.5,20h-3.6L168.5,30.7z M162.8,18.3l-4.5,9.5h8.9L162.8,18.3z"/>
	<path class="st1" d="M194.9,34.9h-4l-6.4-6.9H180v6.9h-3.4v-20c1.1,0,2.7,0,4.9,0c2.2,0,3.8,0,4.9,0c2.3,0,4.2,0.6,5.5,1.9
		c1.3,1.3,2,2.8,2,4.6c0,1.6-0.5,2.9-1.4,4.1c-0.9,1.2-2.4,1.9-4.3,2.1l6.3,6.7L194.9,34.9z M180,17.8v7.3h6.4c1.3,0,2.3-0.3,3-1
		c0.7-0.7,1-1.5,1-2.5c0-1-0.3-1.9-1-2.6c-0.7-0.7-1.7-1.1-3-1.1H180z"/>
	<path class="st1" d="M202.4,17.8h-6.9v-2.9h17.3v2.9h-6.9v17.1h-3.4V17.8z"/>
</g>
<text transform="matrix(1.2854 0 0 1 79.3286 44.9766)" class="st2 st3 st4">yields of harvest</text>
<g>
	<path class="st0" d="M172.7,51.6h-2.2v-2.5h2.2V51.6z"/>
	<path class="st0" d="M183.2,50c0,1.1-0.6,1.6-1.6,1.6h-4.7c-1.1,0-1.7-0.5-1.7-1.6V39.6c0-1.1,0.6-1.6,1.7-1.6h4.7
		c1.1,0,1.6,0.5,1.6,1.6v2.7h-1.9v-2.6h-4.1V50h4.1v-3h1.9V50z"/>
	<path class="st0" d="M194.3,50c0,1.1-0.6,1.6-1.7,1.6h-4.9c-1.1,0-1.7-0.5-1.7-1.6V39.6c0-1.1,0.6-1.6,1.7-1.6h4.9
		c1.1,0,1.7,0.5,1.7,1.6V50z M192.3,50V39.7H188V50H192.3z"/>
	<path class="st0" d="M211.5,51.6h-2V39.7l-4.3,0.1v11.8h-1.9V39.7l-4.3,0.1v11.8h-2V38h2v0.4c0.8-0.1,1.5-0.2,2.3-0.3
		c0.9-0.1,1.7-0.2,2.3-0.2c0.6,0,1,0.2,1.3,0.5c0.8-0.1,1.6-0.2,2.5-0.3c1.1-0.1,1.9-0.2,2.4-0.2c1.1,0,1.6,0.5,1.6,1.5V51.6z"/>
</g>
<path d="M34.1,46.5l-2-0.6c-0.4-0.8-1.2-1.3-2.1-1.3c-0.4,0-0.9,0.1-1.2,0.3l-2-0.6c0.8-0.9,1.9-1.5,3.2-1.5
	C32.1,42.8,33.9,44.5,34.1,46.5z"/>
<path class="st0" d="M30,42.8c-1.3,0-2.5,0.6-3.2,1.5c-0.6,0.7-0.9,1.6-0.9,2.6c0,2.3,1.9,4.2,4.2,4.2s4.2-1.9,4.2-4.2
	c0-0.2,0-0.3,0-0.5C33.9,44.5,32.1,42.8,30,42.8z M30,49.4c-1.3,0-2.4-1.1-2.4-2.4c0-0.6,0.2-1.1,0.5-1.5c0.2-0.2,0.4-0.4,0.6-0.5
	c0.4-0.2,0.8-0.3,1.2-0.3c0.9,0,1.7,0.5,2.1,1.3c0.1,0.2,0.2,0.5,0.2,0.8c0,0.1,0,0.2,0,0.3C32.4,48.3,31.3,49.4,30,49.4z"/>
<path class="st0" d="M46.8,49c-0.8,0-1.5,0.2-2.2,0.6c-1.2,0.7-2,2.1-2,3.6c0,2.3,1.9,4.2,4.2,4.2s4.2-1.9,4.2-4.2
	c0-0.7-0.1-1.3-0.4-1.8C49.9,50,48.4,49,46.8,49z M46.8,55.6c-1.3,0-2.4-1.1-2.4-2.4c0-0.9,0.5-1.6,1.1-2c0.4-0.2,0.8-0.3,1.2-0.3
	c0.9,0,1.8,0.5,2.1,1.3c0.1,0.3,0.2,0.7,0.2,1C49.1,54.5,48.1,55.6,46.8,55.6z"/>
<path class="st1" d="M19.1,7.5c-0.2-0.6-0.4-1.1-0.8-1.6c-0.6-1-1.7-1.6-3-1.6H4.4c-2,0-3.6,1.6-3.6,3.6c0,2,1.6,3.6,3.6,3.6h6.9
	l0.8,3.2l7.9-3.2L19.1,7.5z"/>
<polygon class="st1" points="12.4,15.3 12.6,16.2 20.5,12.9 20.3,12 "/>
<polygon class="st1" points="20.7,13.6 12.8,16.9 13,17.6 20.9,14.4 "/>
<path class="st1" d="M61.1,45.3L26.4,35l-5.3-20l-7.9,3.2L19,40c0.4,1.7,1.8,2.8,3.4,3.1c0.1,0.1,0.3,0.1,0.4,0.1l2,0.6
	c1.1-1.7,3-2.8,5.1-2.8c3.3,0,6,2.7,6,6c0,0,0,0.1,0,0.1l6.5,1.9c1.1-1.1,2.6-1.8,4.3-1.8c2.9,0,5.3,2.1,5.9,4.8l6,1.8
	c2.4,0.7,4.8-0.6,5.5-3c0.1-0.4,0.2-0.8,0.2-1.3C64.3,47.6,63.1,45.8,61.1,45.3z"/>
<polygon points="12.3,14.9 12.4,15.3 12.2,14.6 "/>
<polygon points="20.5,12.9 20.7,13.6 20.6,13.3 "/>
</svg>
