<?xml version="1.0" encoding="utf-8"?>
<!-- Generator: Adobe Illustrator 27.0.0, SVG Export Plug-In . SVG Version: 6.00 Build 0)  -->
<svg version="1.1" id="Layer_1" xmlns="http://www.w3.org/2000/svg" xmlns:xlink="http://www.w3.org/1999/xlink" x="0px" y="0px"
	 viewBox="0 0 78 60" style="enable-background:new 0 0 78 60;" xml:space="preserve">
<style type="text/css">
	.st0{fill:#59D12C;}
</style>
<g>
	<path d="M52.4,8.9c1.3,0.7,3.7,1.6,3.6,2.1c-1.4,7.4,4.3,6.9,10.1,8.7c0.4-6.5,0.7-12.4,1.2-19.1c3.1,0.8,6.1,1.6,9.1,2.4
		c0,0.4-0.1,0.7-0.1,1.1c-1.8,0-3.7,0-5.4,0C69.8,11,70.2,18,67.7,23.7c-2.3,5.3-7.6,9.4-12.2,14.8c1.4,1.8,4,5.2,6.7,8.6
		c-0.3,0.3-0.5,0.6-0.8,1c-2.3-1.7-4.4-3.7-6.9-5c-5.2-2.8-10.3-6-15.8-7.7c-11.9-3.7-18.3-0.2-25.5,13.4
		c-0.9-9.3,2.9-15.4,10.3-20.5C14.4,21.1,5.6,14,1.7,1.5c17.7,1.1,34.7,1.3,50.9,7.7c-7.8-0.8-15.7-1.5-23.5-2.3
		c-0.3,1.2-0.6,2.3-0.9,3.5c7,5.4,16.4,2.6,25.7,6C53.2,12.8,52.8,10.8,52.4,8.9z M32.7,20.7c-2.7-3.1-4.8-5-6.2-7.4
		c-4.4-7.5-6.6-8.5-16-5.5c10.3,12.4,22.6,20.7,38.8,22c5.1,0.4,10.2-0.5,13.9-6.9c-4.6-0.8-8.3-1.4-12-2
		c-5.1-5.1-12.5-4.2-19.4-6.3C32.1,16.9,32.3,18.1,32.7,20.7z"/>
	<path class="st0" d="M18.5,59.4c-1.8-2.7-3.8-4.3-3.6-5.7c0.2-1.4,2.6-3.5,3.9-3.5c1.4,0.1,3.6,2.3,3.7,3.8
		C22.6,55.3,20.5,56.9,18.5,59.4z"/>
	<path class="st0" d="M71.7,53.8c-2.6,1.9-4.2,3.8-5.6,3.7c-1.5-0.1-2.7-2.3-4.1-3.6c1.3-1.3,2.5-3.5,4-3.7
		C67.4,50.1,69.1,52,71.7,53.8z"/>
</g>
</svg>
