<?xml version="1.0" encoding="utf-8"?>
<!-- Generator: Adobe Illustrator 27.0.0, SVG Export Plug-In . SVG Version: 6.00 Build 0)  -->
<svg version="1.1" id="Layer_1" xmlns="http://www.w3.org/2000/svg" xmlns:xlink="http://www.w3.org/1999/xlink" x="0px" y="0px"
	 viewBox="0 0 140 130.4" style="enable-background:new 0 0 140 130.4;" xml:space="preserve">
<style type="text/css">
	.st0{fill:url(#SVGID_1_);}
	.st1{fill:url(#SVGID_00000119084839538180475530000016259392504877425585_);}
	.st2{fill:url(#SVGID_00000174602567306329338690000012983736528103915189_);}
	.st3{fill:url(#SVGID_00000032626245192740219100000012418667530000288166_);}
	.st4{fill:url(#SVGID_00000037682983499676175880000010768089083185803707_);}
</style>
<g>
	
		<image style="overflow:visible;opacity:0.5;" width="150" height="148" xlink:href="D96F3BFF.png"  transform="matrix(1 0 0 1 1.5084 -1.6102)">
	</image>
	<g>
		<g>
			<linearGradient id="SVGID_1_" gradientUnits="userSpaceOnUse" x1="10.3804" y1="65.1948" x2="129.3105" y2="65.1948">
				<stop  offset="0" style="stop-color:#CBDFF3"/>
				<stop  offset="2.524449e-02" style="stop-color:#B8D7F0"/>
				<stop  offset="9.346732e-02" style="stop-color:#89C5E8"/>
				<stop  offset="0.1616" style="stop-color:#61B5E2"/>
				<stop  offset="0.2286" style="stop-color:#43A9DC"/>
				<stop  offset="0.2939" style="stop-color:#2DA1D9"/>
				<stop  offset="0.357" style="stop-color:#209CD7"/>
				<stop  offset="0.4151" style="stop-color:#1C9AD6"/>
				<stop  offset="0.5536" style="stop-color:#1389C9"/>
				<stop  offset="0.7233" style="stop-color:#0B7ABF"/>
				<stop  offset="0.8652" style="stop-color:#0875BB"/>
				<stop  offset="0.9944" style="stop-color:#005B96"/>
			</linearGradient>
			<path class="st0" d="M123.2,45.3c0.3-2.6,0.7-13.2-10.1-17.1c-0.6-2.7-3.7-13-17.7-13c0,0,0,0-0.1,0c-0.8-1.6-3.1-5.6-8-7.6
				c-4.8-1.9-10.5-1.4-17,1.7C67.5,8.1,53.3,2.2,46,14c-2.9-0.1-13.9,0.4-19.4,15.1c-1.8,1-9.5,5.6-9.7,15.4c-1,0.9-3.5,3.4-5.1,7.5
				c-1.8,4.5-2.7,11.8,3,20.9c-1,2.3-4.5,11.5-0.9,18.9c2,4.1,5.9,6.8,11.4,8.1c0.5,3.5,3.6,18.1,18.2,18.1c0.2,0,0.4,0,0.7,0
				c1.4,1.2,7.5,5.9,14.3,5.9c0.6,0,1.2,0,1.7-0.1c4-0.5,7.4-2.6,10.2-6.4c2.1,1.8,8,6,14.8,5.6c4.3-0.3,8.2-2.3,11.5-6.1
				c1.8,0.2,7.3,0.4,11.9-3.2c3.6-2.9,5.7-7.4,6.2-13.6c1.3-0.8,5-3.4,8.2-7.5c5.1-6.5,6.4-13.7,3.9-20.9
				C127.9,69,133.6,54.1,123.2,45.3z M121.4,91.2c-3.6,4.6-8.1,7.3-8.1,7.3c-0.3,0.2-0.5,0.5-0.5,0.8c-0.4,5.8-2.2,10.1-5.5,12.7
				c-4.7,3.7-10.8,2.7-10.9,2.7c-0.4-0.1-0.7,0.1-0.9,0.3c-3,3.6-6.5,5.6-10.4,5.8c-7.5,0.4-14.1-5.7-14.2-5.8
				c-0.2-0.2-0.5-0.3-0.8-0.3c-0.3,0-0.6,0.2-0.7,0.4c-2.6,3.8-5.8,6-9.5,6.4c-7.5,0.9-14.7-5.5-14.8-5.5c-0.2-0.2-0.4-0.3-0.7-0.3
				c0,0,0,0,0,0c-15.5,0.7-17.2-16.3-17.3-17c0-0.4-0.4-0.8-0.8-0.9c-5.3-1.1-8.9-3.5-10.7-7.2c-3.7-7.4,1-17.6,1.1-17.7
				c0.1-0.3,0.1-0.7-0.1-1c-10.5-16.5,1.3-26.1,1.8-26.5c0.2-0.2,0.4-0.5,0.4-0.8c0-10,8.6-14,9-14.2c0.2-0.1,0.4-0.3,0.5-0.6
				C33.9,14.4,45.8,16,46.3,16c0.4,0.1,0.8-0.1,1-0.5c7-12.1,21.8-4.5,22.4-4.2c0.3,0.1,0.6,0.2,0.9,0c6.2-2.9,11.5-3.6,15.9-1.8
				c5.2,2.1,7.2,7,7.2,7.1c0.1,0.4,0.5,0.7,1,0.6c14.8-0.4,16.4,11.4,16.5,11.9c0,0.4,0.3,0.7,0.7,0.8c11.3,3.7,9.4,15.1,9.3,15.6
				c-0.1,0.4,0.1,0.7,0.4,1c10.8,8.5,3.4,24.5,3.3,24.7c-0.1,0.2-0.1,0.5,0,0.8C127.3,78.6,126.1,85.1,121.4,91.2z"/>
			
				<linearGradient id="SVGID_00000095334857703921201430000005492019916057475715_" gradientUnits="userSpaceOnUse" x1="48.9312" y1="25.6078" x2="68.8288" y2="25.6078">
				<stop  offset="0" style="stop-color:#CBDFF3"/>
				<stop  offset="2.524449e-02" style="stop-color:#B8D7F0"/>
				<stop  offset="9.346732e-02" style="stop-color:#89C5E8"/>
				<stop  offset="0.1616" style="stop-color:#61B5E2"/>
				<stop  offset="0.2286" style="stop-color:#43A9DC"/>
				<stop  offset="0.2939" style="stop-color:#2DA1D9"/>
				<stop  offset="0.357" style="stop-color:#209CD7"/>
				<stop  offset="0.4151" style="stop-color:#1C9AD6"/>
				<stop  offset="0.5536" style="stop-color:#1389C9"/>
				<stop  offset="0.7233" style="stop-color:#0B7ABF"/>
				<stop  offset="0.8652" style="stop-color:#0875BB"/>
				<stop  offset="0.9944" style="stop-color:#005B96"/>
			</linearGradient>
			<path style="fill:url(#SVGID_00000095334857703921201430000005492019916057475715_);" d="M50.2,39.2h17.3c0.7,0,1.3-0.6,1.3-1.3
				V20.2c0-3.3-1.9-6.2-4.8-7.3c-3.8-1.4-7.5-1.2-10.6,0.6c-2.7,1.6-4.4,4.7-4.4,8.1v16.2C48.9,38.6,49.5,39.2,50.2,39.2z
				 M50.9,21.7c0-2.7,1.3-5.2,3.4-6.4c2.7-1.5,5.7-1.7,9-0.5c2.1,0.8,3.5,3,3.5,5.4v17H50.9V21.7z"/>
			
				<linearGradient id="SVGID_00000076604541219455636640000004316902247885077889_" gradientUnits="userSpaceOnUse" x1="31.4177" y1="99.7728" x2="98.8839" y2="99.7728">
				<stop  offset="0" style="stop-color:#CBDFF3"/>
				<stop  offset="2.524449e-02" style="stop-color:#B8D7F0"/>
				<stop  offset="9.346732e-02" style="stop-color:#89C5E8"/>
				<stop  offset="0.1616" style="stop-color:#61B5E2"/>
				<stop  offset="0.2286" style="stop-color:#43A9DC"/>
				<stop  offset="0.2939" style="stop-color:#2DA1D9"/>
				<stop  offset="0.357" style="stop-color:#209CD7"/>
				<stop  offset="0.4151" style="stop-color:#1C9AD6"/>
				<stop  offset="0.5536" style="stop-color:#1389C9"/>
				<stop  offset="0.7233" style="stop-color:#0B7ABF"/>
				<stop  offset="0.8652" style="stop-color:#0875BB"/>
				<stop  offset="0.9944" style="stop-color:#005B96"/>
			</linearGradient>
			<path style="fill:url(#SVGID_00000076604541219455636640000004316902247885077889_);" d="M98,84.7c-0.7-1.2-2.1-3.5-7.2-3.5
				c-0.7-0.1-4.2-0.4-6.6,3.8H32.4c-0.5,0-1,0.4-1,1v16c-0.1,2.4,3.6,6.9,6.8,8.9c2.8,1.8,4.6,1.4,5.6,0.9c0.3-0.2,0.5-0.5,0.5-0.9
				L44,97.1h8.1c0.3,0,0.7-0.2,0.8-0.5c0.2-0.2,0.2-0.5,0.1-0.8c0-0.1,0.1-0.7,0.9-1.7c0.6-0.4,3.2-1.8,5.8-1.2
				c1.5,0.4,2.8,1.5,3.8,3.2c0.2,0.7,1.7,5.9-3.8,8.2c-0.7,0.1-5.5,1.1-7.1-3.4c-0.1-0.4-0.5-0.7-0.9-0.7h-4c-0.3,0-0.5,0.1-0.7,0.3
				c-0.2,0.2-0.3,0.5-0.3,0.7l0.4,10.2c-0.2,0.8-0.2,3,4,5.3c0.5,0.4,2.2,1.6,6.1,1.6c0.9,0,1.8-0.1,2.9-0.2c0.7-0.1,8-0.9,9.2-8.4
				c0-0.1,0-0.1,0-0.2V92.3h15.1c0.5,0.9,1.8,2.5,3.7,3.5c0.1,0,0.1,0.1,0.2,0.1c5.4,1.2,7.9-0.6,9.1-2.3c2.1-3.1,1.1-7.9,0.6-8.6
				C98.1,84.9,98.1,84.8,98,84.7z M95.8,92.8c-1.2,1.5-3.5,1.9-6.7,1.2c-2-1-3-3.1-3-3.1c-0.2-0.3-0.5-0.5-0.9-0.5H68.4
				c-0.5,0-1,0.4-1,1v18.2c-1.1,6.2-7.2,6.6-7.4,6.7c0,0,0,0-0.1,0c-5.7,0.7-7.5-0.9-7.5-0.9c-0.1-0.1-0.1-0.1-0.2-0.2
				c-2.7-1.5-3.2-2.8-3.1-3.2c0.1-0.1,0.1-0.2,0.1-0.4l-0.4-9.3H51c2,4.4,6.9,4.5,9.3,3.9c0,0,0.1,0,0.1,0c6-2.5,5.9-8.2,4.9-10.8
				c0-0.1,0-0.1-0.1-0.2c-1.3-2.3-3-3.7-5.1-4.2c-3.7-0.9-7.3,1.4-7.4,1.5c-0.1,0.1-0.2,0.1-0.2,0.2c-0.8,1-1.2,1.8-1.4,2.4H43
				c-0.3,0-0.5,0.1-0.7,0.3c-0.2,0.2-0.3,0.5-0.3,0.7l0.4,14c-1,0.2-2.3-0.5-3.1-1c-3.3-2.1-5.9-6-5.9-7.1c0,0,0-0.1,0-0.1V87h51.3
				c0.4,0,0.7-0.2,0.9-0.5c2-3.8,4.8-3.3,4.9-3.3c0.1,0,0.1,0,0.2,0c4,0,5,1.5,5.6,2.5c0.1,0.1,0.2,0.3,0.2,0.4
				C96.8,86.7,97.5,90.6,95.8,92.8z"/>
			
				<linearGradient id="SVGID_00000000180917315538720130000014960962361543472529_" gradientUnits="userSpaceOnUse" x1="17.5238" y1="82.9674" x2="69.2268" y2="82.9674">
				<stop  offset="0" style="stop-color:#CBDFF3"/>
				<stop  offset="2.524449e-02" style="stop-color:#B8D7F0"/>
				<stop  offset="9.346732e-02" style="stop-color:#89C5E8"/>
				<stop  offset="0.1616" style="stop-color:#61B5E2"/>
				<stop  offset="0.2286" style="stop-color:#43A9DC"/>
				<stop  offset="0.2939" style="stop-color:#2DA1D9"/>
				<stop  offset="0.357" style="stop-color:#209CD7"/>
				<stop  offset="0.4151" style="stop-color:#1C9AD6"/>
				<stop  offset="0.5536" style="stop-color:#1389C9"/>
				<stop  offset="0.7233" style="stop-color:#0B7ABF"/>
				<stop  offset="0.8652" style="stop-color:#0875BB"/>
				<stop  offset="0.9944" style="stop-color:#005B96"/>
			</linearGradient>
			<path style="fill:url(#SVGID_00000000180917315538720130000014960962361543472529_);" d="M68.9,81.7c0.2-0.2,0.3-0.4,0.3-0.7
				v-8.5c0-0.5-0.4-1-1-1L21.4,71c-0.3,0-0.5,0.1-0.7,0.3c-0.2,0.2-4.4,4.9-2.8,13.6c0,1.1,0.4,7.3,8.6,10c0.1,0,0.2,0.1,0.3,0.1
				c0.2,0,0.4-0.1,0.6-0.2c0.3-0.2,0.4-0.5,0.4-0.8V81.4L68.2,82C68.5,82,68.7,81.9,68.9,81.7z M67.2,80l-40.4-0.6
				c-0.3,0-0.5,0.1-0.7,0.3c-0.2,0.2-0.3,0.4-0.3,0.7v12.1c-6.1-2.7-6-7.4-6-7.6c0-0.1,0-0.2,0-0.2c-1.3-6.6,1.2-10.5,2-11.6
				l45.3,0.4V80z"/>
			
				<linearGradient id="SVGID_00000117665705436103774180000013107019726711957128_" gradientUnits="userSpaceOnUse" x1="15.0157" y1="46.3552" x2="115.9472" y2="46.3552">
				<stop  offset="0" style="stop-color:#CBDFF3"/>
				<stop  offset="2.524449e-02" style="stop-color:#B8D7F0"/>
				<stop  offset="9.346732e-02" style="stop-color:#89C5E8"/>
				<stop  offset="0.1616" style="stop-color:#61B5E2"/>
				<stop  offset="0.2286" style="stop-color:#43A9DC"/>
				<stop  offset="0.2939" style="stop-color:#2DA1D9"/>
				<stop  offset="0.357" style="stop-color:#209CD7"/>
				<stop  offset="0.4151" style="stop-color:#1C9AD6"/>
				<stop  offset="0.5536" style="stop-color:#1389C9"/>
				<stop  offset="0.7233" style="stop-color:#0B7ABF"/>
				<stop  offset="0.8652" style="stop-color:#0875BB"/>
				<stop  offset="0.9944" style="stop-color:#005B96"/>
			</linearGradient>
			<path style="fill:url(#SVGID_00000117665705436103774180000013107019726711957128_);" d="M114.6,59.7c-1.1-1.6-2.7-2.7-5-3.2
				c-0.7-0.2-5.8-1.3-8.5,4.7l-32.4-0.1V50.3l8.4,0.1c0.8,1.2,2.9,3.8,6.8,3.8c0,0,0,0,0,0c0.1,0,0.2,0,0.4,0c1.6,0,3.1-0.5,4.4-1.4
				c0,0,0,0,0,0c0,0,0,0,0,0c1.7-1,4.4-3.5,3.2-8.3c-0.1-0.6-0.5-3.6-3.9-4.9c-1.1-0.6-2.4-0.9-3.7-0.9c-2.9,0-5.7,1.7-7,4.3
				l-0.1,0.2c-0.1,0.2-0.3,0.3-0.5,0.3H45V20.7c0-0.3-0.1-0.6-0.3-0.8c-0.2-0.2-0.5-0.3-0.8-0.2c-0.1,0-10,1.6-12.2,10.9
				c0,0.1,0,0.1,0,0.2l-0.4,23.1c0,0.3,0.1,0.5,0.3,0.7c0.2,0.2,0.4,0.3,0.7,0.3l21.1-0.4c0.5,0,0.8-0.3,0.9-0.8
				c0,0,0.4-1.6,1.9-2.5c1.1-0.7,2.6-0.8,4.5-0.3c0,0,0.1,0,0.1,0c0.2,0,3.9,0.7,3.8,5.6c0,0,0,0.1,0,0.1c0,0.5,0.3,4.5-4.6,5.5
				c-0.4,0.1-4.7,0.5-5.6-3.6c-0.1-0.5-0.5-0.8-1-0.8H28V36.4c0-0.4-0.3-0.8-0.7-0.9c-0.4-0.1-0.9,0-1.1,0.3l-3.6,4.8
				c-0.1,0.2-0.2,0.3-0.2,0.5l-0.4,6.3c-1.4,1-5.9,4.6-6.9,9.9c-0.7,3.4,0.2,6.9,2.7,10.3c0.2,0.3,0.5,0.4,0.8,0.4h82.4
				c0.3,1.2,1.2,3.2,3.2,3.9c0.4,0.2,2.3,1,4.5,1c0.8,0,1.7-0.1,2.6-0.4c1.8-0.7,3.2-2.1,4.1-4.2c0,0,0,0,0,0c0-0.1,0-0.1,0.1-0.2
				C115.6,67.9,116.8,63.3,114.6,59.7C114.6,59.8,114.6,59.8,114.6,59.7z M113.7,67.5c-0.7,1.6-1.7,2.7-3,3.1
				c-2.6,1-5.6-0.5-5.6-0.5c0,0-0.1,0-0.1-0.1c-1.8-0.6-2.1-3.1-2.1-3.2c-0.1-0.5-0.5-0.9-1-0.9H19.2c-1.9-2.8-2.6-5.6-2-8.3
				c1-5.4,6.4-8.9,6.4-9c0.3-0.2,0.4-0.5,0.5-0.8l0.4-6.5l1.6-2.1v19.3c0,0.5,0.4,1,1,1h25.5c1.4,4.1,5.5,4.7,7.7,4.4c0,0,0,0,0.1,0
				c5.4-1.1,6.4-5.4,6.2-7.6c0.1-5.2-3.5-7.2-5.4-7.5c-2.4-0.6-4.4-0.4-6,0.6c-1.4,0.9-2.2,2.2-2.5,3l-19.4,0.4L33.6,31
				c1.5-6.2,6.9-8.4,9.4-9v22.4c0,0.5,0.4,1,1,1h32.8c0.8,0,1.6-0.4,2.1-1.1l0.2-0.2c2.6-3.5,4.3-3.2,4.5-3.2C83.7,41,83.8,41,84,41
				c0.3,0,0.6,0,0.9,0c0.1,0,0.2,0,0.4,0c0.2,0,0.3,0,0.5,0c0.1,0,0.2,0,0.3,0.1c0.1,0,0.3,0,0.4,0.1c0.1,0,0.2,0.1,0.3,0.1
				c0.1,0,0.2,0.1,0.4,0.1c0,0,0.1,0.1,0.1,0.1c0.1,0,0.1,0.1,0.2,0.1c0.1,0,0.1,0.1,0.2,0.1c0.1,0,0.1,0.1,0.2,0.1
				c0.1,0,0.1,0.1,0.2,0.1c0,0,0.1,0.1,0.1,0.1c0.1,0,0.1,0.1,0.1,0.1c0,0,0.1,0.1,0.1,0.1c0,0,0.1,0.1,0.1,0.1c0,0,0.1,0.1,0.1,0.1
				c0,0,0.1,0.1,0.1,0.1c0,0,0.1,0.1,0.1,0.1c0,0.1,0.1,0.1,0.1,0.2c0,0,0.1,0.1,0.1,0.1c0,0.1,0.1,0.1,0.1,0.2
				c0,0.1,0.1,0.1,0.1,0.2c0,0.1,0.1,0.1,0.1,0.2c0,0.1,0.1,0.1,0.1,0.2c0,0.1,0.1,0.1,0.1,0.2c0,0.1,0.1,0.1,0.1,0.2
				c0,0.1,0,0.1,0.1,0.2c0,0.1,0,0.1,0.1,0.2c0,0.1,0,0.1,0.1,0.2c0,0.1,0,0.1,0.1,0.2c0,0.1,0,0.1,0.1,0.2c0,0.1,0,0.1,0,0.2
				c0,0.1,0,0.1,0,0.2c0,0.1,0,0.1,0,0.2c0,0.1,0,0.2,0,0.3c0,0,0,0.1,0,0.1c0,0.1,0,0.3,0,0.4c0,0.2,0,0.5,0,0.7c0,0.1,0,0.1,0,0.2
				c0,0.2,0,0.3-0.1,0.5c0,0.1-0.1,0.2-0.1,0.2c0,0.1-0.1,0.3-0.1,0.4c0,0.1-0.1,0.2-0.1,0.3c-0.1,0.1-0.1,0.3-0.2,0.4
				c0,0.1-0.1,0.2-0.1,0.2c-0.1,0.1-0.1,0.2-0.2,0.3c-0.1,0.1-0.1,0.2-0.2,0.2c-0.1,0.1-0.2,0.2-0.2,0.3c-0.1,0.1-0.1,0.1-0.2,0.2
				c-0.1,0.1-0.2,0.2-0.3,0.3c-0.1,0.1-0.2,0.1-0.2,0.2c-0.1,0.1-0.2,0.2-0.3,0.2c-0.3,0.2-0.7,0.4-1,0.5C86,51.9,85.5,52,85.5,52
				c-0.5,0.1-1,0.2-1.5,0.2c-3.6,0-5.3-3.1-5.3-3.2c-0.2-0.3-0.5-0.5-0.9-0.6l-9.9-0.1c-0.3,0-0.5,0.1-0.7,0.3
				c-0.2,0.2-0.3,0.4-0.3,0.7v12.9c0,0.5,0.4,1,1,1l34,0.1c0,0,0,0,0,0c0.4,0,0.8-0.3,0.9-0.6c2-5.3,5.9-4.3,6.3-4.2
				c0,0,0.1,0,0.1,0c1.7,0.4,2.9,1.1,3.7,2.3c0,0,0,0,0,0.1C114.6,63.4,113.8,67,113.7,67.5z"/>
		</g>
	</g>
</g>
</svg>
