<?xml version="1.0" encoding="utf-8"?>
<!-- Generator: Adobe Illustrator 27.3.1, SVG Export Plug-In . SVG Version: 6.00 Build 0)  -->
<svg version="1.1" id="Layer_1" xmlns="http://www.w3.org/2000/svg" xmlns:xlink="http://www.w3.org/1999/xlink" x="0px" y="0px"
	 viewBox="0 0 109 26" style="enable-background:new 0 0 109 26;" xml:space="preserve">
<style type="text/css">
	.st0{fill:#FFFFFF;}
</style>
<g>
	<g>
		<path class="st0" d="M34.3,12.2v1h-2.4V18h-1v-4.8h-2.4v-1H34.3z"/>
		<path class="st0" d="M37.4,13.7v0.5h3.8v1h-3.8v1.1c0,0.3,0.2,0.5,0.5,0.5h4.3v1h-4.3c-0.9,0-1.6-0.7-1.6-1.6v-2.7
			c0-0.9,0.7-1.6,1.6-1.6h4.3v1h-4.3C37.6,13.2,37.4,13.4,37.4,13.7z"/>
		<path class="st0" d="M50,12.2V18h-1v-2.7h-3.8V18h-1v-5.8h1v2.1H49v-2.1H50z"/>
		<path class="st0" d="M57.7,18h-1.2L56,17l-1.3-2.5L53.5,17l-0.5,1h-1.2l0.5-1l2.4-4.8l2.4,4.8L57.7,18z"/>
		<path class="st0" d="M65.3,12.2V18h-1v-3.7l-1,0.8l-0.9,0.7l-0.9-0.7l-1-0.8V18h-1v-5.8l1,0.8l1.9,1.4l1.9-1.4L65.3,12.2z"/>
		<path class="st0" d="M72.9,18h-1.2l-0.5-1l-1.3-2.5L68.7,17l-0.5,1H67l0.5-1l2.4-4.8l2.4,4.8L72.9,18z"/>
		<path class="st0" d="M78.7,13.8L78.7,13.8c0-0.3-0.2-0.6-0.5-0.6h-2.4c-0.3,0-0.5,0.2-0.5,0.5v0c0,0.3,0.2,0.5,0.5,0.5h2.1
			c0.5,0,1,0.2,1.4,0.6c0,0,0,0.1,0.1,0.1c0.3,0.3,0.4,0.7,0.4,1.2c0,1-0.8,1.8-1.8,1.8H76c-1,0-1.8-0.8-1.8-1.8h1
			c0,0.4,0.4,0.8,0.8,0.8h1.8c0.4,0,0.8-0.4,0.8-0.8c0-0.4-0.4-0.8-0.8-0.8h-2.1c-0.4,0-0.8-0.2-1.1-0.4c-0.1-0.1-0.1-0.2-0.2-0.2
			c-0.2-0.2-0.3-0.6-0.3-0.9v0c0-0.9,0.7-1.6,1.6-1.6h2.4c0.9,0,1.6,0.7,1.6,1.6v0L78.7,13.8z"/>
		<path class="st0" d="M86.6,12.6c0.3,0.3,0.5,0.7,0.5,1.1c0,0.6-0.4,1.2-0.9,1.4c-0.1,0.1-0.3,0.1-0.5,0.1c0,0,0,0,0,0v0h-2.8V18
			h-1v-5.8h3.7C85.9,12.2,86.3,12.3,86.6,12.6L86.6,12.6z M85.7,14.2c0.2-0.1,0.3-0.3,0.3-0.5c0-0.2-0.1-0.3-0.2-0.4
			c-0.1-0.1-0.2-0.2-0.4-0.2h-2.6v1.1h2.6C85.5,14.3,85.6,14.3,85.7,14.2L85.7,14.2z"/>
		<path class="st0" d="M93.4,18h-1.2l-0.5-1l-1.3-2.5L89.1,17l-0.5,1h-1.2l0.5-1l2.4-4.8l2.4,4.8L93.4,18z"/>
		<path class="st0" d="M95.3,15.1c0,1,0.8,1.9,1.9,1.9h2.9v1h-2.9c-1.6,0-2.9-1.3-2.9-2.9c0-1.6,1.3-2.9,2.9-2.9h2.9v1h-2.9
			C96.2,13.2,95.3,14,95.3,15.1z"/>
		<path class="st0" d="M103.2,13.7v0.5h3.8v1h-3.8v1.1c0,0.3,0.2,0.5,0.5,0.5h4.3v1h-4.3c-0.9,0-1.6-0.7-1.6-1.6v-2.7
			c0-0.9,0.7-1.6,1.6-1.6h4.3v1h-4.3C103.5,13.2,103.2,13.4,103.2,13.7z"/>
	</g>
	<g>
		<path class="st0" d="M23.3,8.9c0.1-0.5,0.1-2.7-2.1-3.5c-0.1-0.6-0.8-2.7-3.6-2.7c0,0,0,0,0,0C17.5,2.5,17,1.6,16,1.2
			c-1-0.4-2.1-0.3-3.5,0.3c-0.6-0.3-3.5-1.5-5,1c-0.6,0-2.9,0.1-4,3.1c-0.4,0.2-1.9,1.1-2,3.1c-0.2,0.2-0.7,0.7-1,1.5
			c-0.4,0.9-0.5,2.4,0.6,4.3C0.9,15,0.2,16.9,1,18.4c0.4,0.8,1.2,1.4,2.3,1.7C3.4,20.8,4,23.8,7,23.8c0,0,0.1,0,0.1,0
			C7.4,24,8.7,25,10.1,25c0.1,0,0.2,0,0.4,0c0.8-0.1,1.5-0.5,2.1-1.3c0.4,0.4,1.6,1.2,3,1.1c0.9-0.1,1.7-0.5,2.3-1.3
			c0.4,0,1.5,0.1,2.4-0.7c0.7-0.6,1.2-1.5,1.3-2.8c0.3-0.2,1-0.7,1.7-1.5c1-1.3,1.3-2.8,0.8-4.3C24.3,13.8,25.5,10.7,23.3,8.9z
			 M23,18.3c-0.7,0.9-1.7,1.5-1.7,1.5c-0.1,0-0.1,0.1-0.1,0.2c-0.1,1.2-0.5,2.1-1.1,2.6c-1,0.8-2.2,0.6-2.2,0.6
			c-0.1,0-0.1,0-0.2,0.1c-0.6,0.7-1.3,1.1-2.1,1.2c-1.5,0.1-2.9-1.2-2.9-1.2c0,0-0.1-0.1-0.2-0.1c-0.1,0-0.1,0-0.1,0.1
			c-0.5,0.8-1.2,1.2-1.9,1.3c-1.5,0.2-3-1.1-3-1.1c0,0-0.1-0.1-0.1-0.1c0,0,0,0,0,0c-3.2,0.2-3.5-3.3-3.5-3.5c0-0.1-0.1-0.2-0.2-0.2
			c-1.1-0.2-1.8-0.7-2.2-1.5c-0.8-1.5,0.2-3.6,0.2-3.6c0-0.1,0-0.1,0-0.2C-0.6,11.1,1.8,9.1,1.9,9C1.9,9,2,8.9,2,8.8
			c0-2,1.8-2.9,1.8-2.9c0,0,0.1-0.1,0.1-0.1c1.1-3.2,3.6-2.9,3.7-2.9c0.1,0,0.2,0,0.2-0.1c1.4-2.5,4.5-0.9,4.6-0.9
			c0.1,0,0.1,0,0.2,0c1.3-0.6,2.4-0.7,3.2-0.4C16.9,2,17.3,3,17.3,3.1c0,0.1,0.1,0.1,0.2,0.1c3-0.1,3.4,2.3,3.4,2.4
			c0,0.1,0.1,0.1,0.1,0.2c2.3,0.7,1.9,3.1,1.9,3.2c0,0.1,0,0.2,0.1,0.2c2.2,1.7,0.7,5,0.7,5c0,0,0,0.1,0,0.2
			C24.2,15.8,23.9,17.1,23,18.3z"/>
		<path class="st0" d="M8.4,7.7h3.5c0.1,0,0.3-0.1,0.3-0.3V3.8c0-0.7-0.4-1.3-1-1.5C10.4,2,9.7,2.1,9,2.4c-0.6,0.3-0.9,1-0.9,1.7
			v3.3C8.1,7.6,8.3,7.7,8.4,7.7z M8.5,4.1c0-0.6,0.3-1.1,0.7-1.3c0.5-0.3,1.2-0.3,1.8-0.1c0.4,0.2,0.7,0.6,0.7,1.1v3.5H8.5V4.1z"/>
		<path class="st0" d="M18.2,17c-0.1-0.2-0.4-0.7-1.5-0.7c-0.1,0-0.9-0.1-1.4,0.8H4.8c-0.1,0-0.2,0.1-0.2,0.2v3.3
			c0,0.5,0.7,1.4,1.4,1.8c0.6,0.4,0.9,0.3,1.2,0.2c0.1,0,0.1-0.1,0.1-0.2l-0.1-2.8h1.7c0.1,0,0.1,0,0.2-0.1c0-0.1,0-0.1,0-0.2
			c0,0,0-0.1,0.2-0.4c0.1-0.1,0.7-0.4,1.2-0.2c0.3,0.1,0.6,0.3,0.8,0.7c0,0.1,0.3,1.2-0.8,1.7c-0.1,0-1.1,0.2-1.5-0.7
			c0-0.1-0.1-0.1-0.2-0.1H7.9c-0.1,0-0.1,0-0.1,0.1c0,0-0.1,0.1-0.1,0.1l0.1,2.1c0,0.2,0,0.6,0.8,1.1c0.1,0.1,0.5,0.3,1.2,0.3
			c0.2,0,0.4,0,0.6,0c0.1,0,1.6-0.2,1.9-1.7c0,0,0,0,0,0v-3.5h3.1c0.1,0.2,0.4,0.5,0.8,0.7c0,0,0,0,0,0c1.1,0.2,1.6-0.1,1.9-0.5
			C18.5,18.2,18.3,17.2,18.2,17C18.2,17,18.2,17,18.2,17z M17.7,18.6C17.5,19,17,19,16.4,18.9c-0.4-0.2-0.6-0.6-0.6-0.6
			c0-0.1-0.1-0.1-0.2-0.1h-3.4c-0.1,0-0.2,0.1-0.2,0.2v3.7c-0.2,1.3-1.5,1.4-1.5,1.4c0,0,0,0,0,0c-1.2,0.1-1.5-0.2-1.5-0.2
			c0,0,0,0,0,0c-0.6-0.3-0.6-0.6-0.6-0.6c0,0,0,0,0-0.1l-0.1-1.9h0.5c0.4,0.9,1.4,0.9,1.9,0.8c0,0,0,0,0,0c1.2-0.5,1.2-1.7,1-2.2
			c0,0,0,0,0,0c-0.3-0.5-0.6-0.8-1.1-0.9c-0.8-0.2-1.5,0.3-1.5,0.3c0,0,0,0,0,0c-0.2,0.2-0.2,0.4-0.3,0.5H6.9c-0.1,0-0.1,0-0.1,0.1
			c0,0-0.1,0.1-0.1,0.1l0.1,2.9c-0.2,0-0.5-0.1-0.6-0.2c-0.7-0.4-1.2-1.2-1.2-1.5c0,0,0,0,0,0v-3.1h10.5c0.1,0,0.1,0,0.2-0.1
			c0.4-0.8,1-0.7,1-0.7c0,0,0,0,0,0c0.8,0,1,0.3,1.1,0.5c0,0,0,0.1,0,0.1C17.9,17.4,18.1,18.2,17.7,18.6z"/>
		<path class="st0" d="M12.2,16.4c0,0,0.1-0.1,0.1-0.1v-1.7c0-0.1-0.1-0.2-0.2-0.2l-9.6-0.1c-0.1,0-0.1,0-0.2,0.1c0,0-0.9,1-0.6,2.8
			c0,0.2,0.1,1.5,1.8,2c0,0,0,0,0.1,0c0,0,0.1,0,0.1,0c0.1,0,0.1-0.1,0.1-0.2v-2.6l8.3,0.1C12.1,16.4,12.2,16.4,12.2,16.4z M11.9,16
			l-8.3-0.1c-0.1,0-0.1,0-0.1,0.1c0,0-0.1,0.1-0.1,0.1v2.5C2.2,18,2.2,17.1,2.2,17c0,0,0,0,0-0.1c-0.3-1.3,0.2-2.1,0.4-2.4l9.3,0.1
			V16z"/>
		<path class="st0" d="M21.6,11.9c-0.2-0.3-0.6-0.6-1-0.7c-0.1,0-1.2-0.3-1.7,1l-6.6,0V9.9l1.7,0c0.2,0.2,0.6,0.8,1.4,0.8
			c0,0,0,0,0,0c0,0,0,0,0.1,0c0.3,0,0.6-0.1,0.9-0.3c0,0,0,0,0,0c0,0,0,0,0,0c0.3-0.2,0.9-0.7,0.6-1.7c0-0.1-0.1-0.7-0.8-1
			c-0.2-0.1-0.5-0.2-0.8-0.2c-0.6,0-1.2,0.3-1.4,0.9l0,0c0,0-0.1,0.1-0.1,0.1H7.3V3.9c0-0.1,0-0.1-0.1-0.2c0,0-0.1-0.1-0.2,0
			c0,0-2.1,0.3-2.5,2.2c0,0,0,0,0,0l-0.1,4.7c0,0.1,0,0.1,0.1,0.1c0,0,0.1,0.1,0.1,0.1L9,10.8c0.1,0,0.2-0.1,0.2-0.2
			c0,0,0.1-0.3,0.4-0.5c0.2-0.1,0.5-0.2,0.9-0.1c0,0,0,0,0,0c0,0,0.8,0.1,0.8,1.1c0,0,0,0,0,0c0,0.1,0.1,0.9-0.9,1.1
			c-0.1,0-1,0.1-1.2-0.7c0-0.1-0.1-0.2-0.2-0.2H3.9V7.1c0-0.1-0.1-0.2-0.1-0.2c-0.1,0-0.2,0-0.2,0.1L2.8,8c0,0,0,0.1,0,0.1L2.6,9.4
			c-0.3,0.2-1.2,0.9-1.4,2c-0.1,0.7,0,1.4,0.5,2.1c0,0.1,0.1,0.1,0.2,0.1h16.9c0.1,0.2,0.2,0.7,0.7,0.8c0.1,0,0.5,0.2,0.9,0.2
			c0.2,0,0.4,0,0.5-0.1c0.4-0.1,0.7-0.4,0.8-0.9c0,0,0,0,0,0c0,0,0,0,0,0C21.8,13.6,22,12.6,21.6,11.9
			C21.6,11.9,21.6,11.9,21.6,11.9z M21.4,13.5c-0.1,0.3-0.3,0.5-0.6,0.6c-0.5,0.2-1.1-0.1-1.1-0.1c0,0,0,0,0,0
			c-0.4-0.1-0.4-0.6-0.4-0.6c0-0.1-0.1-0.2-0.2-0.2H2c-0.4-0.6-0.5-1.1-0.4-1.7c0.2-1.1,1.3-1.8,1.3-1.8C3,9.6,3,9.6,3,9.5l0.1-1.3
			l0.3-0.4v4c0,0.1,0.1,0.2,0.2,0.2h5.2c0.3,0.8,1.1,1,1.6,0.9c0,0,0,0,0,0c1.1-0.2,1.3-1.1,1.3-1.6c0-1.1-0.7-1.5-1.1-1.5
			c-0.5-0.1-0.9-0.1-1.2,0.1C9.1,10,9,10.2,8.9,10.4l-4,0.1L5,6c0.3-1.3,1.4-1.7,1.9-1.8v4.6c0,0.1,0.1,0.2,0.2,0.2h6.7
			c0.2,0,0.3-0.1,0.4-0.2l0,0C14.8,8,15.2,8,15.2,8c0,0,0.1,0,0.1,0c0.1,0,0.1,0,0.2,0c0,0,0,0,0.1,0c0,0,0.1,0,0.1,0c0,0,0,0,0.1,0
			c0,0,0.1,0,0.1,0c0,0,0,0,0.1,0c0,0,0.1,0,0.1,0c0,0,0,0,0,0c0,0,0,0,0,0c0,0,0,0,0,0c0,0,0,0,0,0c0,0,0,0,0,0c0,0,0,0,0,0
			c0,0,0,0,0,0c0,0,0,0,0,0c0,0,0,0,0,0c0,0,0,0,0,0c0,0,0,0,0,0c0,0,0,0,0,0c0,0,0,0,0,0c0,0,0,0,0,0c0,0,0,0,0,0c0,0,0,0,0,0
			c0,0,0,0,0,0c0,0,0,0,0,0c0,0,0,0,0,0c0,0,0,0,0,0c0,0,0,0,0,0c0,0,0,0,0,0c0,0,0,0,0,0c0,0,0,0,0,0c0,0,0,0,0,0c0,0,0,0,0,0
			c0,0,0,0,0,0c0,0,0,0,0,0c0,0,0,0,0,0.1c0,0,0,0,0,0c0,0,0,0.1,0,0.1c0,0,0,0.1,0,0.1c0,0,0,0,0,0c0,0,0,0.1,0,0.1c0,0,0,0,0,0.1
			c0,0,0,0.1,0,0.1c0,0,0,0,0,0.1c0,0,0,0.1,0,0.1c0,0,0,0,0,0.1c0,0,0,0,0,0.1c0,0,0,0,0,0c0,0,0,0,0,0.1c0,0,0,0,0,0
			c0,0,0,0-0.1,0.1c0,0,0,0,0,0c0,0,0,0-0.1,0c-0.1,0-0.1,0.1-0.2,0.1c-0.1,0.1-0.2,0.1-0.2,0.1c-0.1,0-0.2,0-0.3,0
			c-0.7,0-1.1-0.6-1.1-0.7c0-0.1-0.1-0.1-0.2-0.1l-2,0c-0.1,0-0.1,0-0.1,0.1c0,0-0.1,0.1-0.1,0.1v2.6c0,0.1,0.1,0.2,0.2,0.2l7,0
			c0,0,0,0,0,0c0.1,0,0.2-0.1,0.2-0.1c0.4-1.1,1.2-0.9,1.3-0.9c0,0,0,0,0,0c0.3,0.1,0.6,0.2,0.8,0.5c0,0,0,0,0,0
			C21.6,12.6,21.4,13.4,21.4,13.5z"/>
	</g>
</g>
</svg>
